<svg width="1024" height="1024" viewBox="0 0 1024 1024" fill="none" xmlns="http://www.w3.org/2000/svg">
<g clip-path="url(#clip0_97_150)">
<g filter="url(#filter0_dd_97_150)">
<rect x="22" y="22" width="979" height="979" rx="185" fill="#202020"/>
</g>
<path fill-rule="evenodd" clip-rule="evenodd" d="M511.5 654.769C590.625 654.769 654.769 590.625 654.769 511.5C654.769 432.375 590.625 368.231 511.5 368.231C432.375 368.231 368.231 432.375 368.231 511.5C368.231 590.625 432.375 654.769 511.5 654.769ZM626.115 511.5C626.115 574.8 574.8 626.115 511.5 626.115C448.2 626.115 396.885 574.8 396.885 511.5C396.885 448.2 448.2 396.885 511.5 396.885C574.8 396.885 626.115 448.2 626.115 511.5Z" fill="#F2F0E3"/>
<path fill-rule="evenodd" clip-rule="evenodd" d="M759.833 511.5C759.833 648.651 648.651 759.833 511.5 759.833C374.349 759.833 263.167 648.651 263.167 511.5C263.167 374.349 374.349 263.167 511.5 263.167C648.651 263.167 759.833 374.349 759.833 511.5ZM511.5 712.077C622.276 712.077 712.077 622.276 712.077 511.5C712.077 400.724 622.276 310.923 511.5 310.923C400.724 310.923 310.923 400.724 310.923 511.5C310.923 622.276 400.724 712.077 511.5 712.077Z" fill="#F2F0E3"/>
<path fill-rule="evenodd" clip-rule="evenodd" d="M884 511.5C884 717.226 717.226 884 511.5 884C305.774 884 139 717.226 139 511.5C139 305.774 305.774 139 511.5 139C717.226 139 884 305.774 884 511.5ZM511.5 817.141C680.301 817.141 817.141 680.301 817.141 511.5C817.141 342.699 680.301 205.859 511.5 205.859C342.699 205.859 205.859 342.699 205.859 511.5C205.859 680.301 342.699 817.141 511.5 817.141Z" fill="#F2F0E3"/>
</g>
<defs>
<filter id="filter0_dd_97_150" x="13" y="20" width="997" height="1001" filterUnits="userSpaceOnUse" color-interpolation-filters="sRGB">
<feFlood flood-opacity="0" result="BackgroundImageFix"/>
<feColorMatrix in="SourceAlpha" type="matrix" values="0 0 0 0 0 0 0 0 0 0 0 0 0 0 0 0 0 0 127 0" result="hardAlpha"/>
<feMorphology radius="1" operator="dilate" in="SourceAlpha" result="effect1_dropShadow_97_150"/>
<feOffset dy="7"/>
<feGaussianBlur stdDeviation="4"/>
<feComposite in2="hardAlpha" operator="out"/>
<feColorMatrix type="matrix" values="0 0 0 0 0 0 0 0 0 0 0 0 0 0 0 0 0 0 0.15 0"/>
<feBlend mode="normal" in2="BackgroundImageFix" result="effect1_dropShadow_97_150"/>
<feColorMatrix in="SourceAlpha" type="matrix" values="0 0 0 0 0 0 0 0 0 0 0 0 0 0 0 0 0 0 127 0" result="hardAlpha"/>
<feOffset dy="12"/>
<feGaussianBlur stdDeviation="4"/>
<feComposite in2="hardAlpha" operator="out"/>
<feColorMatrix type="matrix" values="0 0 0 0 0 0 0 0 0 0 0 0 0 0 0 0 0 0 0.15 0"/>
<feBlend mode="normal" in2="effect1_dropShadow_97_150" result="effect2_dropShadow_97_150"/>
<feBlend mode="normal" in="SourceGraphic" in2="effect2_dropShadow_97_150" result="shape"/>
</filter>
<clipPath id="clip0_97_150">
<rect width="1024" height="1024" fill="white"/>
</clipPath>
</defs>
</svg>
